<svg xmlns="http://www.w3.org/2000/svg" viewBox="0 0 48 48" width="48" height="48" role="img" aria-label="Navora">
  <title>Navora</title>
  <!-- A bridge arc (UK to India) carrying a leaf: sourcing, connected. -->
  <circle cx="24" cy="24" r="23" fill="#1B4332"/>
  <path d="M10 31c0-8.5 6.6-15 14-15s14 6.5 14 15"
        fill="none" stroke="#D4A24C" stroke-width="2.4" stroke-linecap="round"/>
  <circle cx="10" cy="31" r="2.8" fill="#D4A24C"/>
  <circle cx="38" cy="31" r="2.8" fill="#D4A24C"/>
  <path d="M24 13c-4.4 0-8 3.6-8 8 0 4.4 3.6 8 8 8 0-4.4 0-11.6 0-16Z" fill="#FAF8F4"/>
  <path d="M24 13c4.4 0 8 3.6 8 8 0 4.4-3.6 8-8 8" fill="#EDF1EA"/>
  <path d="M24 14.5v14" stroke="#1B4332" stroke-width="1.1" stroke-linecap="round"/>
</svg>
